<svg xmlns="http://www.w3.org/2000/svg" width="147" height="44" viewBox="0 0 147 44" fill="none">
    <path fill-rule="evenodd" clip-rule="evenodd"
        d="M33.6431 3.14453H10.7654C14.1045 1.14701 18.0185 0 22.2003 0C26.3899 0 30.304 1.14701 33.6431 3.14453Z"
        fill="#fff" />
    <path fill-rule="evenodd" clip-rule="evenodd"
        d="M6.66246 6.28906H37.7383C37.7934 6.34368 37.8486 6.3905 37.9037 6.44512L34.8953 9.43359H3.98486C4.78027 8.30219 5.67805 7.24881 6.66246 6.28906Z"
        fill="#fff" />
    <path fill-rule="evenodd" clip-rule="evenodd"
        d="M2.13418 12.5703H31.7137L28.54 15.7148H0.921387C1.24427 14.6303 1.65379 13.5769 2.13418 12.5703Z"
        fill="#fff" />
    <path fill-rule="evenodd" clip-rule="evenodd"
        d="M0.228383 18.8594H25.3742L22.2004 22.0039H0C0 20.9349 0.0787528 19.8815 0.228383 18.8594Z"
        fill="#fff" />
    <path fill-rule="evenodd" clip-rule="evenodd"
        d="M0.228516 25.1406H19.0347L15.8609 28.2851H0.92154C0.614404 27.263 0.378146 26.2174 0.228516 25.1406Z"
        fill="#fff" />
    <path fill-rule="evenodd" clip-rule="evenodd"
        d="M2.13428 31.4297H12.6872L9.51342 34.5742H3.98497C3.28407 33.5755 2.6698 32.5299 2.13428 31.4297Z"
        fill="#fff" />
    <path fill-rule="evenodd" clip-rule="evenodd"
        d="M34.8876 9.42578H40.4239C41.1248 10.4167 41.7391 11.4701 42.2667 12.5703H31.7139L34.8876 9.42578Z"
        fill="#fff" />
    <path fill-rule="evenodd" clip-rule="evenodd"
        d="M28.548 15.7148H43.4874C43.7946 16.737 44.0229 17.7826 44.1804 18.8594H25.3743L28.548 15.7148Z"
        fill="#fff" />
    <path fill-rule="evenodd" clip-rule="evenodd"
        d="M22.2003 21.9961H44.4007C44.4007 23.0651 44.3219 24.1107 44.1723 25.1406H19.0344L22.2003 21.9961Z"
        fill="#fff" />
    <path fill-rule="evenodd" clip-rule="evenodd"
        d="M15.861 28.2852H43.4875C43.1646 29.3697 42.7551 30.4231 42.2747 31.4297H12.6873L15.861 28.2852Z"
        fill="#fff" />
    <path fill-rule="evenodd" clip-rule="evenodd"
        d="M9.5133 34.5664H40.4238C39.6284 35.6978 38.7306 36.7512 37.7383 37.711H6.66245C6.60732 37.6563 6.5522 37.6095 6.49707 37.5549L9.5133 34.5664Z"
        fill="#fff" />
    <path fill-rule="evenodd" clip-rule="evenodd"
        d="M10.7654 40.8555H33.6509C30.3118 42.853 26.3978 44 22.2082 44C18.0185 44 14.1045 42.8452 10.7654 40.8555Z"
        fill="#fff" />
    <path
        d="M57.3716 27.7936C57.4188 26.67 57.4503 25.4137 57.474 24.0092C57.9229 23.5645 58.2142 23.2601 58.356 23.0885L66.814 13.6549H65.9163C64.3806 13.6549 63.0339 13.6705 61.8684 13.7095C60.7107 13.7407 59.5688 13.7875 58.4662 13.8578C58.545 12.7576 58.5923 11.6106 58.5923 10.4011C60.5926 10.4245 62.4669 10.4323 64.2231 10.4323C67.3811 10.4323 70.0744 10.4245 72.2795 10.4011C72.2401 10.8771 72.1771 12.2114 72.1062 14.3884L63.4749 23.8766L62.8843 24.4696C64.0419 24.5164 65.0027 24.5398 65.7903 24.5398C67.4834 24.5398 68.649 24.532 69.2869 24.5086C69.9248 24.493 70.7123 24.4618 71.6416 24.415C71.5471 25.2733 71.4683 26.3969 71.3975 27.7936C69.3735 27.7702 67.0818 27.7624 64.5302 27.7624C61.8054 27.7624 59.4192 27.7702 57.3716 27.7936ZM76.2408 7.45947C76.288 6.28124 76.3116 5.38392 76.3116 4.7597V4.2135C77.359 4.23691 78.2096 4.24471 78.8711 4.24471C79.7689 4.24471 80.6115 4.23691 81.3754 4.2135C81.3439 4.5022 81.3203 4.82212 81.3046 5.18885L81.2179 7.46727C80.3438 7.44386 79.5326 7.43606 78.8002 7.43606C78.0678 7.42826 77.2173 7.43606 76.2408 7.45947ZM75.3351 27.7936C75.5084 26.0848 75.6265 24.649 75.6974 23.502C75.8155 21.6762 75.9179 19.5772 76.0045 17.1896C76.0833 14.8097 76.1463 12.5391 76.1778 10.4011C77.3118 10.4245 78.1466 10.4323 78.7136 10.4323C79.2334 10.4323 80.076 10.4245 81.2337 10.4011C81.0762 12.383 80.9423 14.2791 80.8478 16.0738C80.7454 17.8762 80.6745 19.944 80.6352 22.2692C80.5879 24.5944 80.5643 26.4359 80.5643 27.7936C79.5169 27.7702 78.6742 27.7624 78.0442 27.7624C77.4457 27.7624 76.54 27.7702 75.3351 27.7936ZM84.6122 27.7936C84.8799 25.203 85.1083 22.3004 85.2895 19.07C85.4706 15.8397 85.573 12.9526 85.5966 10.3933C86.6598 10.4167 87.4945 10.4245 88.1324 10.4245C88.8806 10.4245 89.6681 10.4167 90.5108 10.3933L90.3296 13.3194C90.684 12.82 90.999 12.422 91.2668 12.1255C91.5346 11.829 91.8811 11.5403 92.3063 11.2594C92.7237 10.9707 93.1726 10.7444 93.6451 10.5806C94.1255 10.4089 94.6532 10.2685 95.2438 10.167C95.8345 10.0656 96.4487 10.0188 97.0945 10.0188C98.1183 10.0188 99.0948 10.1436 100.032 10.4011C100.961 10.6586 101.725 11.0644 102.292 11.6184C102.867 12.1802 103.245 12.7888 103.426 13.452C103.607 14.1075 103.702 14.8097 103.702 15.551C103.702 15.8553 103.686 16.3469 103.647 17.0179L103.284 24.4852C103.237 25.523 103.206 26.6232 103.198 27.8014C102.292 27.778 101.52 27.7702 100.875 27.7702C100 27.7702 99.1263 27.778 98.2443 27.8014C98.3309 26.8104 98.4412 25.086 98.5751 22.6125C98.7089 20.1546 98.7719 18.516 98.7719 17.7202C98.7719 16.8228 98.6302 16.0972 98.3388 15.551C98.0474 15.0048 97.6064 14.5834 97.0079 14.2947C96.4015 14.006 95.7557 13.8656 95.0548 13.8656C94.3697 13.8656 93.7239 13.9904 93.1254 14.2557C92.5347 14.521 92.0149 14.9033 91.5739 15.4027C91.1172 15.9177 90.7628 16.5419 90.5108 17.2988C90.243 18.0947 90.054 19.4134 89.9201 21.2548C89.7941 22.8856 89.6996 25.0548 89.6287 27.7936C88.7467 27.7702 87.9513 27.7624 87.2346 27.7624C86.518 27.7624 85.636 27.7702 84.6122 27.7936ZM106.442 27.7936C106.49 26.67 106.521 25.4137 106.545 24.0092C106.994 23.5645 107.285 23.2601 107.427 23.0885L115.877 13.6549H114.979C113.444 13.6549 112.097 13.6705 110.931 13.7095C109.774 13.7407 108.632 13.7875 107.529 13.8578C107.608 12.7576 107.655 11.6106 107.655 10.4011C109.656 10.4245 111.53 10.4323 113.286 10.4323C116.444 10.4323 119.137 10.4245 121.342 10.4011C121.303 10.8771 121.24 12.2114 121.169 14.3884L112.546 23.8766L111.955 24.4696C113.113 24.5164 114.074 24.5398 114.861 24.5398C116.554 24.5398 117.72 24.532 118.358 24.5086C118.996 24.493 119.783 24.4618 120.712 24.415C120.618 25.2733 120.539 26.3969 120.468 27.7936C118.444 27.7702 116.153 27.7624 113.601 27.7624C110.876 27.7624 108.49 27.7702 106.442 27.7936ZM125.713 14.1855C125.879 13.374 125.981 12.8122 126.028 12.4845C126.068 12.1568 126.139 11.6652 126.249 11.0019C127.816 10.643 129.194 10.3933 130.391 10.2451C131.588 10.0968 132.738 10.0266 133.856 10.0266C135.124 10.0266 136.29 10.1748 137.345 10.4635C138.408 10.7523 139.235 11.2126 139.834 11.8524C140.424 12.4923 140.731 13.413 140.731 14.6068C140.731 15.2545 140.645 16.9009 140.464 19.5616C140.283 22.2224 140.172 24.969 140.141 27.8014C139.267 27.778 138.463 27.7702 137.731 27.7702C137.03 27.7702 136.203 27.778 135.266 27.8014C135.416 26.4281 135.542 24.8363 135.628 23.0261L135.857 18.7735C135.416 19.0622 135.085 19.2573 134.849 19.3743C134.62 19.4836 134.36 19.5928 134.069 19.6865C133.778 19.7801 133.266 19.9283 132.541 20.1312C131.809 20.3263 131.226 20.5058 130.785 20.654C130.352 20.8023 129.95 20.9739 129.596 21.1612C129.249 21.3485 128.95 21.5591 128.706 21.7932C128.462 22.0273 128.288 22.2692 128.178 22.5267C128.068 22.7842 128.013 23.0651 128.013 23.3616C128.013 23.8376 128.155 24.2511 128.438 24.5944C128.722 24.9455 129.076 25.1874 129.501 25.3201C129.934 25.4527 130.438 25.523 131.013 25.523C131.383 25.523 131.769 25.4917 132.187 25.4371C132.596 25.3825 133.148 25.2343 133.841 25.0002C133.596 25.6478 133.313 26.6153 132.99 27.9028C132.171 28.0433 131.525 28.1291 131.037 28.1681C130.557 28.1993 130.108 28.2227 129.69 28.2227C128.241 28.2227 127.044 28.0277 126.115 27.6375C125.178 27.2552 124.493 26.6388 124.052 25.7961C123.611 24.9534 123.39 24.1028 123.39 23.2523C123.39 22.7608 123.477 22.277 123.65 21.801C123.823 21.325 124.075 20.8881 124.406 20.4901C124.745 20.0844 125.17 19.7021 125.698 19.3353C126.225 18.9686 126.989 18.6097 127.997 18.2585C128.997 17.9074 130.32 17.5563 131.974 17.2052C132.407 17.1193 132.864 17.0101 133.337 16.8696C133.809 16.7448 134.187 16.6122 134.471 16.4873C134.754 16.3625 134.998 16.1986 135.203 15.9957C135.408 15.8007 135.565 15.59 135.66 15.3715C135.762 15.153 135.809 14.9346 135.809 14.7083C135.809 14.2557 135.66 13.8656 135.368 13.5535C135.077 13.2413 134.699 13.0151 134.226 12.898C133.762 12.7732 133.242 12.7186 132.675 12.7186C130.564 12.7108 128.249 13.2023 125.713 14.1855Z"
        fill="#fff" />
    <path
        d="M60.4744 32.6001H62.0967C62.8291 32.6001 63.3646 32.7093 63.7111 32.9356C64.0497 33.1619 64.223 33.5052 64.223 33.9578C64.223 34.2699 64.1206 34.5274 63.908 34.7381C63.6954 34.9488 63.3961 35.0814 62.9945 35.136V35.1594C63.467 35.2219 63.8135 35.3623 64.034 35.5652C64.2545 35.7759 64.3648 36.0646 64.3648 36.4313C64.3648 36.9229 64.1836 37.3052 63.8214 37.5783C63.4591 37.8436 62.9472 37.9762 62.2857 37.9762H60.4744V32.6001ZM60.8918 34.9956H62.1912C62.7424 34.9956 63.152 34.9097 63.404 34.7459C63.656 34.5742 63.782 34.3167 63.782 33.9578C63.782 33.5989 63.6402 33.3414 63.3567 33.1775C63.0732 33.0137 62.6479 32.9356 62.0888 32.9356H60.8918V34.9956ZM60.8918 35.3311V37.6485H62.2857C63.3803 37.6485 63.9316 37.2428 63.9316 36.4391C63.9316 35.6978 63.3567 35.3311 62.1991 35.3311H60.8918ZM67.3416 38.0543C66.7037 38.0543 66.2076 37.8748 65.8453 37.5159C65.4909 37.1569 65.3098 36.6576 65.3098 36.0099C65.3098 35.3701 65.483 34.8629 65.8296 34.4806C66.1761 34.0982 66.6407 33.9032 67.2235 33.9032C67.7432 33.9032 68.1528 34.067 68.452 34.3948C68.7513 34.7225 68.9009 35.1672 68.9009 35.729V36.0177H65.7351C65.7429 36.5717 65.8847 36.9931 66.1603 37.2818C66.436 37.5705 66.8297 37.7188 67.3495 37.7188C67.6015 37.7188 67.822 37.7031 68.011 37.6719C68.2 37.6407 68.4441 37.5705 68.7355 37.4691V37.7968C68.4835 37.8982 68.2551 37.9606 68.0504 37.9997C67.8299 38.0387 67.6015 38.0543 67.3416 38.0543ZM67.2235 34.2231C66.7982 34.2231 66.4596 34.3479 66.1997 34.6054C65.9477 34.8629 65.7902 35.2297 65.7508 35.7056H68.4678C68.4678 35.2375 68.3575 34.8785 68.137 34.6132C67.9244 34.3479 67.6172 34.2231 67.2235 34.2231ZM69.208 33.9812H69.6176L70.5468 36.2284C70.8304 36.9151 71.0115 37.3832 71.0824 37.6251H71.106C71.2162 37.3052 71.4053 36.837 71.6573 36.205L72.5865 33.9812H72.9961L71.0272 38.6239C70.8697 38.9984 70.7359 39.2559 70.6256 39.3886C70.5153 39.5212 70.3893 39.6226 70.2476 39.6851C70.1058 39.7553 69.9326 39.7865 69.7278 39.7865C69.5703 39.7865 69.4049 39.7631 69.2159 39.7085V39.3964C69.3734 39.4354 69.5388 39.4588 69.7199 39.4588C69.8617 39.4588 69.9798 39.4276 70.0822 39.3729C70.1846 39.3105 70.2791 39.2247 70.3657 39.0998C70.4523 38.975 70.5469 38.7799 70.665 38.5146C70.7752 38.2493 70.8461 38.0699 70.8855 37.9918L69.208 33.9812ZM77.3826 35.9787C77.3826 36.6342 77.2093 37.1413 76.8628 37.5081C76.5163 37.8748 76.0359 38.0543 75.4216 38.0543C75.0358 38.0543 74.6971 37.9684 74.4057 37.7968C74.1144 37.6251 73.886 37.3832 73.7285 37.0711C73.571 36.7512 73.4922 36.3923 73.4922 35.9709C73.4922 35.3155 73.6655 34.8083 74.012 34.4416C74.3585 34.0748 74.8389 33.8954 75.4453 33.8954C76.0517 33.8954 76.5242 34.0826 76.8707 34.4494C77.2172 34.8239 77.3826 35.3311 77.3826 35.9787ZM73.9175 35.9787C73.9175 36.5249 74.0513 36.9541 74.3191 37.2662C74.5869 37.5705 74.957 37.7266 75.4453 37.7266C75.9335 37.7266 76.3037 37.5705 76.5714 37.2662C76.8392 36.9619 76.9731 36.5327 76.9731 35.9787C76.9731 35.4247 76.8392 34.9956 76.5714 34.6913C76.3037 34.387 75.9257 34.2387 75.4374 34.2387C74.9491 34.2387 74.579 34.387 74.3112 34.6913C74.0435 34.9956 73.9175 35.4247 73.9175 35.9787ZM81.6667 37.984V35.3935C81.6667 34.9878 81.5722 34.6991 81.3832 34.5118C81.2021 34.3323 80.9107 34.2387 80.517 34.2387C79.9893 34.2387 79.6034 34.3557 79.3593 34.6054C79.1152 34.8473 78.9892 35.2375 78.9892 35.7759V37.984H78.5875V33.9812H78.9261L79.0049 34.5352H79.0285C79.312 34.1217 79.8239 33.911 80.5563 33.911C81.5565 33.911 82.0526 34.3948 82.0526 35.3701V37.984H81.6667ZM85.1004 33.9032C85.4154 33.9032 85.691 33.9578 85.9273 34.0592C86.1557 34.1685 86.3683 34.3479 86.5494 34.5976H86.573C86.5573 34.2855 86.5494 33.9812 86.5494 33.6847V32.2412H86.9432V37.9684H86.6833L86.5809 37.3598H86.5494C86.2187 37.8124 85.7383 38.0465 85.1082 38.0465C84.5018 38.0465 84.0372 37.8748 83.7143 37.5315C83.3914 37.1882 83.2339 36.6888 83.2339 36.0333C83.2339 35.3389 83.3914 34.8161 83.7143 34.4494C84.0293 34.0904 84.4861 33.9032 85.1004 33.9032ZM85.1004 34.2387C84.62 34.2387 84.2577 34.3948 84.0215 34.6991C83.7852 35.0034 83.6592 35.4559 83.6592 36.0411C83.6592 37.1804 84.1475 37.7422 85.1082 37.7422C85.6044 37.7422 85.9666 37.6095 86.2029 37.3442C86.4313 37.0789 86.5494 36.6498 86.5494 36.0411V35.9787C86.5494 35.3623 86.4313 34.9175 86.2108 34.6444C85.9745 34.3713 85.6044 34.2387 85.1004 34.2387ZM91.7314 37.7422C91.9834 37.7422 92.2039 37.7188 92.3929 37.6797V37.9684C92.196 38.0231 91.9755 38.0543 91.7235 38.0543C91.3376 38.0543 91.0462 37.9606 90.8651 37.7734C90.6839 37.5861 90.5894 37.2896 90.5894 36.8839V34.3011H89.9358V34.0904L90.5894 33.9266L90.7942 33.0215H90.999V33.989H92.2905V34.3089H90.999V36.8448C90.999 37.1491 91.062 37.3832 91.1801 37.5315C91.2903 37.6641 91.4793 37.7422 91.7314 37.7422ZM96.4093 37.984V35.3935C96.4093 34.9878 96.3148 34.6991 96.1258 34.5118C95.9446 34.3323 95.6532 34.2387 95.2595 34.2387C94.7318 34.2387 94.3459 34.3557 94.1018 34.6054C93.8577 34.8473 93.7317 35.2375 93.7317 35.7759V37.984H93.33V32.2568H93.7317V34.0826L93.7159 34.5976H93.7474C93.9128 34.3557 94.1176 34.1841 94.3696 34.0748C94.6216 33.9656 94.9287 33.911 95.3067 33.911C96.3069 33.911 96.803 34.3948 96.803 35.3701V37.984H96.4093ZM100.008 38.0543C99.3704 38.0543 98.8742 37.8748 98.512 37.5159C98.1576 37.1569 97.9765 36.6576 97.9765 36.0099C97.9765 35.3701 98.1497 34.8629 98.4962 34.4806C98.8427 34.0982 99.3074 33.9032 99.8901 33.9032C100.41 33.9032 100.819 34.067 101.119 34.3948C101.418 34.7225 101.568 35.1672 101.568 35.729V36.0177H98.4017C98.4096 36.5717 98.5513 36.9931 98.827 37.2818C99.1026 37.5705 99.4964 37.7188 100.016 37.7188C100.268 37.7188 100.489 37.7031 100.678 37.6719C100.867 37.6407 101.111 37.5705 101.402 37.4691V37.7968C101.15 37.8982 100.922 37.9606 100.717 37.9997C100.489 38.0387 100.26 38.0543 100.008 38.0543ZM99.8901 34.2231C99.4649 34.2231 99.1262 34.3479 98.8664 34.6054C98.6143 34.8629 98.4568 35.2297 98.4175 35.7056H101.134C101.134 35.2375 101.024 34.8785 100.804 34.6132C100.583 34.3479 100.276 34.2231 99.8901 34.2231ZM106.702 38.0543C106.064 38.0543 105.568 37.8748 105.206 37.5159C104.852 37.1569 104.67 36.6576 104.67 36.0099C104.67 35.3701 104.844 34.8629 105.19 34.4806C105.537 34.0982 106.001 33.9032 106.584 33.9032C107.104 33.9032 107.513 34.067 107.813 34.3948C108.112 34.7225 108.262 35.1672 108.262 35.729V36.0177H105.096C105.104 36.5717 105.245 36.9931 105.521 37.2818C105.797 37.5705 106.19 37.7188 106.71 37.7188C106.962 37.7188 107.183 37.7031 107.372 37.6719C107.561 37.6407 107.805 37.5705 108.096 37.4691V37.7968C107.844 37.8982 107.616 37.9606 107.411 37.9997C107.191 38.0387 106.954 38.0543 106.702 38.0543ZM106.584 34.2231C106.159 34.2231 105.82 34.3479 105.56 34.6054C105.308 34.8629 105.151 35.2297 105.111 35.7056H107.828C107.828 35.2375 107.718 34.8785 107.498 34.6132C107.285 34.3479 106.978 34.2231 106.584 34.2231ZM110.388 35.9241L108.852 33.9812H109.317L110.624 35.6666L111.924 33.9812H112.365L110.853 35.9241L112.467 37.984H112.002L110.616 36.1972L109.222 37.984H108.781L110.388 35.9241ZM115.31 38.0543C114.633 38.0543 114.144 37.8202 113.829 37.3598H113.806L113.814 37.6719C113.822 37.8514 113.829 38.0543 113.829 38.2649V39.7865H113.428V33.9734H113.766L113.845 34.543H113.869C114.168 34.1139 114.656 33.8954 115.318 33.8954C115.908 33.8954 116.365 34.0748 116.672 34.426C116.987 34.7771 117.137 35.2999 117.137 35.9709C117.137 36.6264 116.972 37.1413 116.649 37.5003C116.326 37.8748 115.877 38.0543 115.31 38.0543ZM115.302 37.7422C115.751 37.7422 116.097 37.5939 116.349 37.2818C116.594 36.9775 116.72 36.5483 116.72 36.0021C116.72 34.8239 116.255 34.2387 115.318 34.2387C114.806 34.2387 114.428 34.3635 114.192 34.621C113.955 34.8785 113.829 35.2999 113.829 35.8773V35.9943C113.829 36.6186 113.948 37.0711 114.176 37.3364C114.404 37.6017 114.782 37.7422 115.302 37.7422ZM120.137 38.0543C119.5 38.0543 119.003 37.8748 118.641 37.5159C118.287 37.1569 118.106 36.6576 118.106 36.0099C118.106 35.3701 118.279 34.8629 118.625 34.4806C118.972 34.0982 119.437 33.9032 120.019 33.9032C120.539 33.9032 120.949 34.067 121.248 34.3948C121.547 34.7225 121.697 35.1672 121.697 35.729V36.0177H118.531C118.539 36.5717 118.681 36.9931 118.956 37.2818C119.232 37.5705 119.626 37.7188 120.145 37.7188C120.397 37.7188 120.618 37.7031 120.807 37.6719C120.996 37.6407 121.24 37.5705 121.531 37.4691V37.7968C121.279 37.8982 121.051 37.9606 120.846 37.9997C120.626 38.0387 120.389 38.0543 120.137 38.0543ZM120.019 34.2231C119.594 34.2231 119.255 34.3479 118.996 34.6054C118.744 34.8629 118.586 35.2297 118.547 35.7056H121.264C121.264 35.2375 121.153 34.8785 120.933 34.6132C120.72 34.3479 120.413 34.2231 120.019 34.2231ZM124.658 38.0543C124.028 38.0543 123.54 37.8748 123.185 37.5159C122.831 37.1569 122.65 36.6498 122.65 36.0099C122.65 35.3467 122.831 34.8317 123.201 34.465C123.571 34.0982 124.075 33.911 124.713 33.911C125.091 33.911 125.453 33.9734 125.808 34.0904L125.697 34.4182C125.319 34.3011 124.989 34.2465 124.705 34.2465C124.17 34.2465 123.76 34.3948 123.484 34.6991C123.209 35.0034 123.067 35.4403 123.067 36.0099C123.067 36.5483 123.209 36.9697 123.484 37.274C123.76 37.5783 124.146 37.7344 124.65 37.7344C125.052 37.7344 125.422 37.6719 125.76 37.5393V37.8748C125.485 37.9918 125.115 38.0543 124.658 38.0543ZM128.005 37.7422C128.257 37.7422 128.477 37.7188 128.666 37.6797V37.9684C128.47 38.0231 128.249 38.0543 127.997 38.0543C127.611 38.0543 127.32 37.9606 127.139 37.7734C126.957 37.5861 126.863 37.2896 126.863 36.8839V34.3011H126.209V34.0904L126.863 33.9266L127.068 33.0215H127.272V33.989H128.564V34.3089H127.272V36.8448C127.272 37.1491 127.335 37.3832 127.454 37.5315C127.564 37.6641 127.753 37.7422 128.005 37.7422ZM131.391 38.0543C130.753 38.0543 130.257 37.8748 129.895 37.5159C129.541 37.1569 129.359 36.6576 129.359 36.0099C129.359 35.3701 129.533 34.8629 129.879 34.4806C130.226 34.0982 130.69 33.9032 131.273 33.9032C131.793 33.9032 132.202 34.067 132.502 34.3948C132.801 34.7225 132.951 35.1672 132.951 35.729V36.0177H129.785C129.793 36.5717 129.934 36.9931 130.21 37.2818C130.486 37.5705 130.879 37.7188 131.399 37.7188C131.651 37.7188 131.872 37.7031 132.061 37.6719C132.25 37.6407 132.494 37.5705 132.785 37.4691V37.7968C132.533 37.8982 132.305 37.9606 132.1 37.9997C131.88 38.0387 131.643 38.0543 131.391 38.0543ZM131.273 34.2231C130.848 34.2231 130.509 34.3479 130.249 34.6054C129.997 34.8629 129.84 35.2297 129.8 35.7056H132.517C132.517 35.2375 132.407 34.8785 132.187 34.6132C131.974 34.3479 131.667 34.2231 131.273 34.2231ZM135.77 33.9032C136.085 33.9032 136.361 33.9578 136.597 34.0592C136.825 34.1685 137.038 34.3479 137.219 34.5976H137.243C137.227 34.2855 137.219 33.9812 137.219 33.6847V32.2412H137.613V37.9684H137.353L137.25 37.3598H137.219C136.888 37.8124 136.408 38.0465 135.778 38.0465C135.171 38.0465 134.707 37.8748 134.384 37.5315C134.061 37.1882 133.903 36.6888 133.903 36.0333C133.903 35.3389 134.061 34.8161 134.384 34.4494C134.699 34.0904 135.164 33.9032 135.77 33.9032ZM135.77 34.2387C135.29 34.2387 134.927 34.3948 134.691 34.6991C134.455 35.0034 134.329 35.4559 134.329 36.0411C134.329 37.1804 134.817 37.7422 135.778 37.7422C136.274 37.7422 136.636 37.6095 136.872 37.3442C137.101 37.0789 137.219 36.6498 137.219 36.0411V35.9787C137.219 35.3623 137.101 34.9175 136.88 34.6444C136.652 34.3713 136.282 34.2387 135.77 34.2387Z"
        fill="#fff" />
    <path fill-rule="evenodd" clip-rule="evenodd"
        d="M144.157 6.28906C145.732 6.28906 147 7.55312 147 9.10587C147 10.6664 145.724 11.9227 144.157 11.9227C142.582 11.9227 141.314 10.6586 141.314 9.10587C141.314 7.55312 142.582 6.28906 144.157 6.28906ZM143.81 9.09807H144.157C144.385 9.09807 144.551 9.05906 144.653 8.97323C144.755 8.88739 144.811 8.76255 144.811 8.59869C144.811 8.42703 144.755 8.30999 144.645 8.23196C144.535 8.16173 144.362 8.12272 144.141 8.12272H143.818V9.09807H143.81ZM143.81 9.50382V10.6976H143.314V7.70917H144.165C144.559 7.70917 144.842 7.7794 145.031 7.92765C145.22 8.0759 145.315 8.29438 145.315 8.58309C145.315 8.95762 145.118 9.22292 144.732 9.37897L145.582 10.7054H145.023L144.299 9.51162H143.81V9.50382ZM144.157 6.73382C145.48 6.73382 146.559 7.795 146.559 9.11368C146.559 10.4245 145.488 11.4935 144.157 11.4935C142.834 11.4935 141.755 10.4323 141.755 9.11368C141.755 7.795 142.834 6.73382 144.157 6.73382Z"
        fill="#fff" />
</svg>